PathFileType	4	(X/Y/Z)	..\data\2014007\dynamic\2014007_C4_04.trc
DataRate	CameraRate	NumFrames	NumMarkers	Units	OrigDataRate	OrigDataStartFrame	OrigNumFrames
100.000000	100.000000	4	52	mm	100.000000	23	188
Frame#	Time	L_IAS			L_IPS			R_IPS			R_IAS			L_FTC			L_FLE			L_FME			L_FAX			L_TTC			L_FAL			L_TAM			L_FCC			L_FM1			L_FM2			L_FM5			R_FTC			R_FLE			R_FME			R_FAX			R_TTC			R_FAL			R_TAM			R_FCC			R_FM1			R_FM2			R_FM5			CV7			TV10			SXS			SJN			L_SIA			L_SRS			L_SAA			L_SAE			L_HLE			L_HME			L_UOA			L_RSP			L_UHE			L_HM2			L_HM5			R_SIA			R_SRS			R_SAA			R_SAE			R_HLE			R_HME			R_UOA			R_RSP			R_UHE			R_HM2			R_HM5			
		X1	Y1	Z1	X2	Y2	Z2	X3	Y3	Z3	X4	Y4	Z4	X5	Y5	Z5	X6	Y6	Z6	X7	Y7	Z7	X8	Y8	Z8	X9	Y9	Z9	X10	Y10	Z10	X11	Y11	Z11	X12	Y12	Z12	X13	Y13	Z13	X14	Y14	Z14	X15	Y15	Z15	X16	Y16	Z16	X17	Y17	Z17	X18	Y18	Z18	X19	Y19	Z19	X20	Y20	Z20	X21	Y21	Z21	X22	Y22	Z22	X23	Y23	Z23	X24	Y24	Z24	X25	Y25	Z25	X26	Y26	Z26	X27	Y27	Z27	X28	Y28	Z28	X29	Y29	Z29	X30	Y30	Z30	X31	Y31	Z31	X32	Y32	Z32	X33	Y33	Z33	X34	Y34	Z34	X35	Y35	Z35	X36	Y36	Z36	X37	Y37	Z37	X38	Y38	Z38	X39	Y39	Z39	X40	Y40	Z40	X41	Y41	Z41	X42	Y42	Z42	X43	Y43	Z43	X44	Y44	Z44	X45	Y45	Z45	X46	Y46	Z46	X47	Y47	Z47	X48	Y48	Z48	X49	Y49	Z49	X50	Y50	Z50	X51	Y51	Z51	X52	Y52	Z52	

24	0.23	-758.9705200195314	909.8232421875002	164.7557525634765	-957.636901855469	982.4495239257815	247.9735412597656	-953.9154052734377	991.531188964844	328.9107055664062	-762.1052856445314	941.1423950195315	418.7745361328125	-821.6608886718752	878.2014160156252	103.4584808349609	-858.155700683594	453.8920898437501	134.877716064453	-846.6267089843752	432.8621520996095	254.7559814453124	-909.7156982421877	409.3096618652345	132.945816040039	-867.9161376953127	367.6665649414063	186.535430908203	-1158.419067382813	174.0726776123047	175.0832672119139	-1120.71533203125	168.9004516601563	250.618438720703	-1208.890380859375	183.8368377685547	231.727798461914	-1095.99267578125	45.64694595336915	251.8739624023437	-1089.681274414063	52.35668563842775	200.6799774169921	-1126.610717773438	56.69351196289064	162.0180358886718	-822.4589233398441	885.985046386719	481.6827697753906	-723.3696289062501	477.4680175781251	409.8366088867188	-742.1193847656251	478.1280212402345	279.4670715332031	-740.7659912109376	407.5350036621095	409.1101379394531	-684.9638671875001	411.4587402343751	350.9356689453125	-752.9837036132814	60.33069992065431	358.6671447753906	-738.1023559570314	82.09314727783205	272.4692077636718	-803.5091552734377	25.91326522827149	304.8132934570312	-615.4144287109376	24.34214401245118	280.7780456542969	-607.9628295898439	40.57394409179688	333.0256042480469	-649.2210693359376	26.90640449523926	381.1084899902344	-917.8585205078127	1432.327270507813	268.1458435058593	-965.6066894531252	1192.85693359375	279.6957702636718	-792.7956542968752	1352.420776367188	268.7879638671874	-716.0118408203126	1183.432373046875	276.5474548339843	-975.0836181640627	1209.758422851563	178.2184906005859	-956.7397460937502	1351.00634765625	183.0529632568359	-923.8453369140627	1354.408569335938	112.7037658691405	-872.2874145507815	1359.005004882813	85.91385650634756	-872.1329345703127	1035.98291015625	23.56474876403798	-890.3211059570315	1018.545471191406	102.0255432128905	-901.7631835937502	1011.64892578125	51.77434921264638	-726.7077026367189	821.8767089843752	56.47110748291008	-770.0217895507815	811.8656005859377	-6.408082485199071	-673.4039306640626	747.8539428710939	44.6194534301757	-758.2581787109376	728.7661743164064	-5.758162021637057	-982.9561157226565	1218.643676757813	371.9320068359374	-958.4512939453127	1349.282958984375	368.3611755371093	-913.2403564453127	1372.02880859375	435.38916015625	-870.4497680664065	1376.764770507813	456.7192077636719	-896.2177124023441	1063.442993164063	548.6207885742188	-932.5637817382816	1051.748046875	471.2276306152344	-936.1130981445316	1036.96142578125	523.5350341796875	-786.9667968750003	823.7551879882815	527.4058227539062	-835.2891235351566	827.0046997070315	590.7769775390625	-760.0377197265627	744.1286621093751	533.4157104492188	-833.2340087890628	751.6049804687501	601.9547119140625	
25	0.24	-750.1744384765626	911.0166015625002	165.6684417724609	-948.6372070312502	983.7305908203127	249.144302368164	-944.7467041015627	993.0554199218752	329.9775695800781	-752.8814697265626	942.4300537109377	419.7821655273438	-812.8005981445315	879.2003173828127	104.6439132690429	-838.8569335937502	454.410369873047	134.0686950683593	-825.0570068359377	432.4265136718751	253.7726593017578	-890.0251464843752	410.1671752929689	132.2097930908202	-848.180358886719	368.2120056152344	185.2938385009765	-1142.194702148438	179.1710357666016	175.2966003417968	-1103.4375	172.6639099121094	250.3781127929687	-1191.96484375	189.26220703125	232.5505371093749	-1081.179321289063	48.65499496459962	250.0115966796874	-1075.383422851563	55.53389358520509	198.9363861083984	-1112.185302734375	61.25249481201173	160.9999084472655	-813.5646972656253	887.4038696289065	482.7536315917969	-720.7522583007814	477.2683105468751	411.0083618164062	-739.3345947265626	478.1611328125001	280.5396423339843	-739.0939941406251	407.3897399902345	410.0327758789062	-682.8745727539064	410.9510803222657	352.1390686035156	-753.1203002929689	60.09691619873048	358.9739379882812	-738.0007324218751	82.14929962158205	272.8277587890624	-803.6007080078127	25.89349746704102	304.9324645996093	-615.5448608398439	24.51943969726563	280.9323425292969	-607.9138183593751	40.49695587158204	333.2796630859375	-649.2277221679689	26.51630592346192	381.6280517578125	-908.2219848632815	1433.783935546875	269.7062988281249	-956.0955810546877	1194.44677734375	281.3680725097656	-783.1903076171877	1353.7783203125	269.6506042480468	-706.6314086914064	1184.64111328125	276.9159545898437	-966.1577758789065	1211.3984375	180.0870208740234	-947.592712402344	1352.563354492188	184.8328857421874	-915.170593261719	1356.068969726563	114.2699584960937	-863.7230224609377	1360.648071289063	87.2261199951171	-867.0081787109377	1037.551391601563	25.58983612060537	-885.453308105469	1020.754272460938	104.2875976562499	-897.014831542969	1014.051574707031	53.94763946533194	-726.7033691406251	820.0142211914065	57.64405441284172	-770.369567871094	811.294372558594	-5.230526447296238	-675.7658691406251	744.2366333007814	45.84193801879875	-761.0532226562501	727.8055419921876	-4.658260822296237	-972.9415283203127	1220.2412109375	373.9911499023437	-948.3138427734377	1350.844482421875	370.2133483886718	-902.599792480469	1373.467529296875	436.9971008300781	-859.6538085937502	1378.112182617188	458.0569458007812	-884.5661010742191	1064.958251953125	550.6422729492188	-921.5808715820316	1053.083862304688	473.6630554199219	-924.6908569335941	1038.341796875	526.0386352539062	-774.9047241210941	825.6673583984377	528.3280029296875	-822.6295166015628	828.6860961914065	592.1280517578125	-747.7677001953127	746.1167602539064	533.9022216796875	-820.2617797851566	753.2436523437501	603.1336059570312	
26	0.25	-741.4795532226564	912.1341552734377	166.5254364013671	-939.7935791015627	984.9633789062502	250.2572174072265	-935.754333496094	994.471618652344	330.9965209960937	-743.9361572265626	943.4844360351565	420.7953796386719	-804.002380371094	880.2543945312502	105.7244567871093	-819.6275634765627	455.2546386718751	133.3876647949218	-803.944519042969	432.4982299804689	253.0072784423828	-870.3249511718752	411.2598876953126	131.638702392578	-828.3904418945315	369.0831909179688	184.3116302490234	-1124.871704101563	183.4078063964844	175.5830078124999	-1085.18798828125	175.8240051269532	250.2829589843749	-1174.157836914063	193.3415832519532	233.3710174560546	-1064.19970703125	51.55090713500978	248.1934967041015	-1058.875122070313	58.78015899658205	197.226333618164	-1095.69384765625	65.51440429687501	159.9036254882811	-804.8754272460941	888.6221313476565	483.7524108886719	-718.2213134765626	477.0901489257814	412.0068359375	-736.6746215820314	478.1888122558595	281.4504089355468	-737.4527587890626	407.2845458984376	410.8125305175781	-680.8923339843751	410.4688720703126	353.1502380371094	-753.2509155273439	59.89162063598634	359.2273254394531	-737.9286499023439	82.19761657714845	273.1270446777343	-803.706237792969	25.88972282409669	305.0274353027343	-615.6820678710939	24.61625289916993	281.07470703125	-607.9202880859376	40.39906692504884	333.4816589355469	-649.2605590820314	26.16570854187012	382.0335388183594	-898.633483886719	1435.188232421875	271.1964111328124	-946.764831542969	1196.003784179688	283.0073242187499	-773.665954589844	1355.020751953125	270.4528503417968	-697.3926391601564	1185.6591796875	277.1654357910156	-957.363464355469	1212.9619140625	181.9772186279296	-938.520935058594	1354.055419921875	186.5645446777343	-906.5781860351565	1357.620483398438	115.7830886840819	-855.2449340820315	1362.139282226563	88.47608184814445	-861.9945068359377	1039.015014648438	27.57400131225576	-880.8122558593752	1022.862365722656	106.5101623535155	-892.3564453125002	1016.352111816406	56.0820426940917	-726.8511352539064	818.2202758789065	58.81803894042961	-770.8061523437502	810.7906494140627	-4.044191837310886	-678.3378906250001	740.7542114257814	47.12040710449211	-763.9306030273439	726.9722290039064	-3.536693334579562	-963.077575683594	1221.80029296875	375.9992980957031	-938.2742309570315	1352.364624023438	372.0078430175781	-892.0420532226565	1374.843994140625	438.5513916015625	-848.9290161132815	1379.372924804688	459.3331298828125	-872.9264526367191	1066.4091796875	552.7091674804688	-910.6321411132816	1054.2880859375	476.2045593261719	-913.2316894531253	1039.628173828125	528.6268310546875	-762.7175292968752	827.565124511719	529.250732421875	-809.8110351562503	830.3267211914065	593.5006713867188	-735.2861938476565	748.1393432617189	534.399169921875	-807.0842895507816	754.8378295898439	604.3342895507812	
27	0.26	-732.8656616210939	913.2050781250002	167.3423461914062	-931.0812988281252	986.1561279296877	251.305923461914	-926.9123535156252	995.7813720703127	331.9628601074218	-735.2394409179689	944.3266601562502	421.8158569335938	-795.2310180664065	881.380310058594	106.7013320922851	-800.5403442382815	456.4385375976564	132.8372497558593	-783.355651855469	433.0868225097657	252.4482727050781	-850.7095947265627	412.5958251953126	131.2369842529296	-808.6254882812502	370.2792663574219	183.5765838623046	-1106.506713867188	186.6835632324219	175.9422149658202	-1066.0283203125	178.3182373046875	250.3374938964843	-1155.541381835938	196.0220184326172	234.1793975830077	-1045.15673828125	54.20297622680665	246.4963073730468	-1040.256103515625	61.93959426879884	195.6302642822265	-1077.220825195313	69.30905151367189	158.8017425537108	-796.3807983398441	889.6380004882815	484.6744689941406	-715.7443847656251	476.9308471679689	412.837158203125	-734.0911865234376	478.2147216796876	282.1969299316406	-735.8088378906251	407.2206115722657	411.4541931152344	-678.9860229492189	410.0106506347657	353.9774475097656	-753.3605346679689	59.7217483520508	359.4293518066406	-737.8693237304689	82.24758911132814	273.3732910156249	-803.8125000000002	25.91413116455079	305.1026916503906	-615.8130493164064	24.64689445495606	281.1990966796875	-607.9573364257814	40.2865333557129	333.6390075683594	-649.3055419921876	25.85807418823243	382.3387451171875	-889.1019287109377	1436.5400390625	272.6078186035156	-937.6016235351565	1197.518188476563	284.6012268066406	-764.2290649414064	1356.156005859375	271.2015686035156	-688.2890625000001	1186.507934570313	277.3161010742188	-948.6893310546877	1214.448364257813	183.8714752197265	-929.5190429687502	1355.483032226563	188.2332153320312	-898.0500488281252	1359.064331054688	117.2360763549804	-846.8325195312502	1363.480224609375	89.66197967529288	-857.092956542969	1040.375	29.52044868469228	-876.361511230469	1024.865478515625	108.6873397827148	-887.7819824218752	1018.545166015625	58.1810760498046	-727.1197509765626	816.5117187500002	59.98738098144523	-771.315124511719	810.3562011718752	-2.843579530716037	-681.0531005859376	737.4459838867189	48.42803192138665	-766.8558349609376	726.2745361328126	-2.387830018997287	-953.3725585937502	1223.32177734375	377.9400329589843	-928.347351074219	1353.840942382813	373.7301330566406	-881.5959472656252	1376.1650390625	440.039306640625	-838.3087158203127	1380.558837890625	460.5398864746094	-861.3191528320316	1067.794189453125	554.7799682617188	-899.7144775390628	1055.367309570313	478.7893371582031	-901.7470703125003	1040.818115234375	531.2388916015625	-750.4168090820315	829.4405517578127	530.1737060546875	-796.8640136718753	831.9316406250002	594.881103515625	-722.6057739257815	750.1862792968751	534.9320678710938	-793.7289428710941	756.4008789062501	605.5626220703125	
